<?xml version="1.0" standalone="no"?><!DOCTYPE svg PUBLIC "-//W3C//DTD SVG 1.1//EN"
        "http://www.w3.org/Graphics/SVG/1.1/DTD/svg11.dtd">
<svg t="1742658440458" class="icon" viewBox="0 0 1024 1024" version="1.1" xmlns="http://www.w3.org/2000/svg" p-id="1489"
     data-darkreader-inline-fill=""
     width="200" height="200">
    <path d="M740.352 52.224l-14.336-6.656c-65.024-28.16-133.632-42.496-204.8-42.496-117.76 0-230.912 40.96-322.048 115.2l47.616 55.296c78.336-62.976 174.592-97.28 273.92-97.28 61.44 0 120.32 12.8 176.64 36.864l14.336 6.144-20.48 49.664 133.632-42.496L762.88 0l-22.528 52.224zM503.296 947.2c-61.44 0-120.32-12.8-176.64-36.864l-14.336-6.144 20.48-48.64-133.632 42.496L261.12 1024l22.016-52.224 14.336 6.656c65.024 28.16 133.632 42.496 204.8 42.496 117.76 0 230.912-40.96 321.536-114.176l-47.616-56.832c-77.312 63.488-173.568 97.28-272.896 97.28zM113.664 325.632l6.144-14.336 48.64 20.48-42.496-133.632L0.512 260.608l52.224 22.016-6.656 14.336c-77.824 177.152-49.664 377.856 72.704 525.824l55.296-47.616C70.144 648.192 47.104 476.672 113.664 325.632z m858.112 413.696l6.656-14.336c77.824-177.152 49.664-377.856-72.704-525.824l-55.296 47.616C953.344 373.76 976.384 545.28 910.336 696.832l-6.144 14.336-48.64-20.48 42.496 133.632 125.44-62.464-51.712-22.528zM277.504 482.304c-16.384 0-29.696 13.312-29.696 29.696s13.312 29.696 29.696 29.696S307.2 528.384 307.2 512c0-8.192-3.072-15.36-8.704-20.992-5.632-5.632-12.8-8.704-20.992-8.704zM775.68 509.44c0-2.048-0.512-4.608-1.536-7.68l-0.512-1.024c-1.536-4.608-4.608-8.704-8.704-11.776L635.392 359.424c-5.632-5.632-12.8-8.704-20.992-8.704-7.68 0-15.36 3.072-20.48 8.704-5.632 5.632-8.704 12.8-8.704 20.992 0 7.68 3.072 15.36 8.704 20.48l80.896 80.896h-192c-16.384 0-29.696 13.312-29.696 29.696s13.312 29.696 29.696 29.696H675.84l-81.92 81.92c-5.632 5.632-8.704 12.8-8.704 20.992 0 7.68 3.072 15.36 8.704 20.48 5.632 5.632 12.8 8.704 20.48 8.704s15.36-3.072 20.992-8.704l131.584-131.584c1.536-1.024 2.048-2.56 2.56-3.072 1.024-1.024 1.536-2.048 2.56-3.584s1.536-3.584 2.56-5.632c0.512-1.536 1.024-3.584 1.024-5.12 0-0.512 0.512-1.536 0.512-3.072-0.512-1.536-0.512-2.048-0.512-3.072z m-395.264-27.136c-16.384 0-29.696 13.312-29.696 29.696s13.312 29.696 29.696 29.696 29.696-13.312 29.696-29.696c0-8.192-3.072-15.36-8.704-20.992-5.632-5.632-13.312-8.704-20.992-8.704z"
          p-id="1490" fill="#1296db" style="--darkreader-inline-fill: var(--darkreader-background-1296db, #0e78af);"
          data-darkreader-inline-fill=""></path>
</svg>